<?xml version="1.0" encoding="utf-8"?>
<!-- Generator: Adobe Illustrator 24.1.2, SVG Export Plug-In . SVG Version: 6.00 Build 0)  -->
<svg version="1.1" id="Layer_1" xmlns="http://www.w3.org/2000/svg" xmlns:xlink="http://www.w3.org/1999/xlink" x="0px" y="0px"
	 viewBox="0 0 1365 534.4" enable-background="new 0 0 1365 534.4" xml:space="preserve">
<path fill="#FFFFFF" d="M448.1,421.6h28.8c16.6,0,31.6,5.8,31.6,24.8c0,21.5-16.1,25.4-34.2,25.4h-10.9v35.5h-15.2L448.1,421.6
	L448.1,421.6z M472.5,458.8c8.7,0,20-0.5,20-12.1c0-10.5-10-12-18.3-12h-10.9v24.1H472.5z"/>
<path fill="#FFFFFF" d="M522,421.6h29.8c16.5,0,31.9,5.3,31.9,24.6c0,12.3-7.1,21.4-19.8,23.2l22.8,37.9h-18.4L548.5,471h-11.1v36.3
	h-15.3v-85.7H522z M549.2,457.9c8.6,0,18.6-0.7,18.6-11.9c0-10.2-9.4-11.4-17.3-11.4h-13.2v23.2L549.2,457.9L549.2,457.9z"/>
<path fill="#FFFFFF" d="M638.9,419.5c26.7-0.5,45.6,17.4,45.6,44.9c0,26.7-18.9,44.7-45.6,45.1c-26.4,0-45.3-17.9-45.3-44.7
	C593.6,437.4,612.5,419.5,638.9,419.5z M639,495.7c17.8,0,29.5-13.5,29.5-31.8c0-17.1-11.7-30.6-29.5-30.6s-29.4,13.5-29.4,30.6
	C609.6,482.1,621.4,495.7,639,495.7z"/>
<path fill="#FFFFFF" d="M699,421.6h28.8c16.6,0,31.6,5.8,31.6,24.8c0,21.5-16.1,25.4-34.2,25.4h-10.9v35.5H699L699,421.6L699,421.6z
	 M723.5,458.8c8.7,0,20-0.5,20-12.1c0-10.5-10-12-18.3-12h-10.9v24.1H723.5z"/>
<path fill="#FFFFFF" d="M773,421.6h56.8v13.8h-41.5v21h39.2v13.8h-39.3v23.2h43.7v13.8H773V421.6z"/>
<path fill="#FFFFFF" d="M846.9,421.6h29.8c16.5,0,32,5.3,32,24.6c0,12.3-7.1,21.4-19.8,23.2l22.8,37.9h-18.4L873.5,471h-11.2v36.3
	H847L846.9,421.6L846.9,421.6z M874,457.9c8.6,0,18.6-0.7,18.6-11.9c0-10.2-9.4-11.4-17.3-11.4h-13.2v23.2L874,457.9L874,457.9z"/>
<path fill="#FFFFFF" d="M938.5,435.4h-26.3v-13.8H980v13.8h-26.3v71.9h-15.2V435.4z"/>
<path fill="#FFFFFF" d="M1011.3,470.6l-32.2-49h19.1l21.1,34.1l21.3-34.1h18.2l-32.2,49v36.7h-15.3L1011.3,470.6z"/>
<path fill="#FFFFFF" d="M1102.5,421.6h15.3v71.9h36.5v13.8h-51.8V421.6z"/>
<path fill="#FFFFFF" d="M1193,421.6h13.2l36.9,85.7h-17.4l-8-19.6h-37.2l-7.8,19.6h-17.1L1193,421.6z M1212.3,474.6l-13.2-34.8
	l-13.4,34.8H1212.3z"/>
<path fill="#FFFFFF" d="M1252.6,421.6h33.4c13,0,26.3,5.9,26.3,21.5c0,9.7-6,16.1-14.9,18.8v0.2c10.6,1,18.7,10,18.5,20.7
	c0,18.6-16.2,24.4-32.4,24.4h-30.9V421.6z M1267.9,456.5h13.9c10.2,0,15.3-4.3,15.3-10.8c0-7.4-5.1-11-16.6-11h-12.6L1267.9,456.5z
	 M1267.9,494.2h14c7.9,0,18.8-1.3,18.8-12.6c0-9-5.8-12.1-18.2-12.1h-14.6L1267.9,494.2z"/>
<path fill="#FFFFFF" d="M447.9,226.9H474v123h62.3v23.5h-88.4V226.9z"/>
<path fill="#FFFFFF" d="M617.4,223.1c45.8-0.8,78,29.8,78,76.8c0,45.8-32.3,76.4-78,77.2c-45.1,0-77.4-30.6-77.4-76.4
	C540,253.8,572.3,223.1,617.4,223.1z M617.6,353.5c30.4,0,50.5-23.2,50.5-54.5c0-29.2-20.1-52.4-50.5-52.4
	c-30.2,0-50.3,23.2-50.3,52.4C567.3,330.4,587.4,353.5,617.6,353.5z"/>
<path fill="#FFFFFF" d="M712.8,226.9h34.6l71,108.9h0.4V226.9h26.1v146.5h-33.1L739.3,261h-0.4v112.4h-26.1V226.9z"/>
<path fill="#FFFFFF" d="M870.2,226.9H928c38.5,0,74.5,23.6,74.5,73.3c0,50.1-42.4,73.3-77.6,73.3h-54.7V226.9z M915.7,349.9
	c32.7,0,59.4-14.1,59.4-49.7s-23.2-49.7-55.1-49.7h-23.8v99.4H915.7z"/>
<path fill="#FFFFFF" d="M1089.4,223.1c45.8-0.8,78,29.8,78,76.8c0,45.8-32.3,76.4-78,77.2c-45.1,0-77.4-30.6-77.4-76.4
	C1012,253.8,1044.2,223.1,1089.4,223.1z M1089.6,353.5c30.4,0,50.5-23.2,50.5-54.5c0-29.2-20.1-52.4-50.5-52.4
	c-30.2,0-50.3,23.2-50.3,52.4C1039.3,330.4,1059.4,353.5,1089.6,353.5L1089.6,353.5z"/>
<path fill="#FFFFFF" d="M1184.8,226.9h34.6l71,108.9h0.4V226.9h26.1v146.5h-33.1L1211.4,261h-0.4v112.4h-26.1L1184.8,226.9
	L1184.8,226.9z"/>
<path fill="#FFFFFF" d="M267.6,320.5c41.8-23.3,72.7-66.8,73.8-130.7c-3.4-201-302.4-201-305.8,0c1.1,63.8,32,107.4,73.8,130.7
	L54.5,507.9h267.9L267.6,320.5z"/>
<path fill="#000080" d="M262.1,152.4c0-40.7-32.9-73.7-73.6-73.8c-40.7,0-73.7,32.9-73.8,73.6c0,11,2.4,21.9,7.2,31.8l0,0
	l66.6,141.5L255,184.1l0,0C259.7,174.2,262.1,163.3,262.1,152.4z"/>
<circle fill="#FFFFFF" cx="188.4" cy="151" r="51.1"/>
</svg>
