<svg id="Layer_1" data-name="Layer 1" xmlns="http://www.w3.org/2000/svg" viewBox="0 0 1281.37 470.38"><path d="M498.92,474.23h28.8c16.58,0,31.58,5.81,31.58,24.81,0,21.54-16.09,25.41-34.24,25.41H514.17V559.9H498.92Zm24.45,37.15c8.71,0,20-.48,20-12.1,0-10.52-10-12-18.27-12H514.17v24.08Z" transform="translate(-86.33 -91.7)" fill="#fff"/><path d="M572.85,474.23h29.77c16.46,0,31.94,5.33,31.94,24.57,0,12.34-7.14,21.42-19.84,23.23l22.75,37.87H619.08l-19.85-36.3H588.1v36.3H572.85ZM600,510.54c8.59,0,18.63-.73,18.63-11.86,0-10.17-9.44-11.38-17.3-11.38H588.1v23.24Z" transform="translate(-86.33 -91.7)" fill="#fff"/><path d="M689.74,472.06c26.74-.49,45.62,17.42,45.62,44.89,0,26.74-18.88,44.65-45.62,45.13-26.38,0-45.26-17.91-45.26-44.65C644.48,490,663.36,472.06,689.74,472.06Zm.12,76.23c17.79,0,29.52-13.55,29.52-31.83,0-17.06-11.73-30.61-29.52-30.61s-29.4,13.55-29.4,30.61C660.46,534.74,672.19,548.29,689.86,548.29Z" transform="translate(-86.33 -91.7)" fill="#fff"/><path d="M749.87,474.23h28.8c16.58,0,31.58,5.81,31.58,24.81,0,21.54-16.09,25.41-34.24,25.41H765.12V559.9H749.87Zm24.45,37.15c8.71,0,20-.48,20-12.1,0-10.52-10-12-18.27-12H765.12v24.08Z" transform="translate(-86.33 -91.7)" fill="#fff"/><path d="M823.8,474.23h56.75V488h-41.5v21.05h39.33v13.8H839.05v23.23h43.68V559.9H823.8Z" transform="translate(-86.33 -91.7)" fill="#fff"/><path d="M897.73,474.23H927.5c16.46,0,32,5.33,32,24.57,0,12.34-7.14,21.42-19.85,23.23l22.75,37.87H944l-19.85-36.3H913v36.3H897.73Zm27.11,36.31c8.59,0,18.63-.73,18.63-11.86,0-10.17-9.44-11.38-17.3-11.38H913v23.24Z" transform="translate(-86.33 -91.7)" fill="#fff"/><path d="M989.33,488H963.07v-13.8h67.77V488h-26.26V559.9H989.33Z" transform="translate(-86.33 -91.7)" fill="#fff"/><path d="M1062.17,523.24l-32.19-49h19.12l21.06,34.13,21.29-34.13h18.15l-32.18,49V559.9h-15.25Z" transform="translate(-86.33 -91.7)" fill="#fff"/><path d="M1153.28,474.23h15.25v71.88H1205V559.9h-51.67Z" transform="translate(-86.33 -91.7)" fill="#fff"/><path d="M1243.79,474.23H1257l36.9,85.67h-17.42l-8-19.6h-37.14l-7.75,19.6h-17.06Zm19.36,53L1250,492.38l-13.43,34.85Z" transform="translate(-86.33 -91.7)" fill="#fff"/><path d="M1303.44,474.23h33.4c13,0,26.25,5.93,26.25,21.54,0,9.68-6,16.1-14.88,18.76v.24a20.38,20.38,0,0,1,18.52,20.69c0,18.64-16.22,24.44-32.43,24.44h-30.86Zm15.25,34.85h13.91c10.17,0,15.25-4.35,15.25-10.77,0-7.38-5.08-11-16.58-11h-12.58Zm0,37.76h14c7.87,0,18.76-1.33,18.76-12.59,0-9-5.81-12.1-18.15-12.1h-14.64Z" transform="translate(-86.33 -91.7)" fill="#fff"/><path d="M498.72,279.45H524.8v123h62.31V426H498.72Z" transform="translate(-86.33 -91.7)" fill="#fff"/><path d="M668.25,275.72c45.75-.82,78,29.81,78,76.8,0,45.75-32.29,76.39-78,77.21-45.13,0-77.42-30.63-77.42-76.38C590.83,306.36,623.12,275.72,668.25,275.72Zm.21,130.42c30.42,0,50.5-23.19,50.5-54.45,0-29.18-20.08-52.37-50.5-52.37-30.23,0-50.3,23.19-50.3,52.37C618.16,383,638.23,406.14,668.46,406.14Z" transform="translate(-86.33 -91.7)" fill="#fff"/><path d="M763.68,279.45h34.56l71,108.88h.41V279.45h26.08V426H862.62l-72.45-112.4h-.41V426H763.68Z" transform="translate(-86.33 -91.7)" fill="#fff"/><path d="M921,279.45h57.76c38.5,0,74.52,23.6,74.52,73.28,0,50.09-42.44,73.28-77.63,73.28H921Zm45.54,123c32.71,0,59.41-14.08,59.41-49.68s-23.18-49.68-55.06-49.68H947.07v99.36Z" transform="translate(-86.33 -91.7)" fill="#fff"/><path d="M1140.2,275.72c45.75-.82,78,29.81,78,76.8,0,45.75-32.29,76.39-78,77.21-45.12,0-77.41-30.63-77.41-76.38C1062.79,306.36,1095.08,275.72,1140.2,275.72Zm.21,130.42c30.43,0,50.51-23.19,50.51-54.45,0-29.18-20.08-52.37-50.51-52.37-30.22,0-50.3,23.19-50.3,52.37C1090.11,383,1110.19,406.14,1140.41,406.14Z" transform="translate(-86.33 -91.7)" fill="#fff"/><path d="M1235.63,279.45h34.57l71,108.88h.41V279.45h26.09V426h-33.12l-72.45-112.4h-.42V426h-26.08Z" transform="translate(-86.33 -91.7)" fill="#fff"/><path d="M318.38,373.13c41.78-23.29,72.69-66.84,73.78-130.68-3.4-201-302.4-201-305.83,0,1.08,63.84,32,107.4,73.77,130.69L105.3,560.51h11l-.17.56H362.61l-.18-.56h10.75Z" transform="translate(-86.33 -91.7)" fill="#fff"/><path d="M300.46,213.4A61.22,61.22,0,1,0,184,239.72h0l55.3,117.51,55.29-117.51h0A61,61,0,0,0,300.46,213.4Z" transform="translate(-86.33 -91.7)" fill="navy"/><circle cx="152.92" cy="120.58" r="42.43" fill="#fff"/></svg>